<svg width="25" height="25" viewBox="0 0 25 25" fill="none" xmlns="http://www.w3.org/2000/svg">
<path d="M23.0462 13.5786V9.73878L24.0736 8.89503C24.1218 8.85732 24.1601 8.80847 24.1853 8.75268C24.2105 8.69689 24.2217 8.63582 24.2181 8.57471C24.214 8.51335 24.196 8.45372 24.1656 8.40028C24.1351 8.34684 24.093 8.30097 24.0423 8.26612L12.7142 0.844243C12.6497 0.804033 12.5753 0.782715 12.4993 0.782715C12.4234 0.782715 12.3489 0.804033 12.2845 0.844243L0.956356 8.26612C0.905683 8.30097 0.863549 8.34684 0.833108 8.40028C0.802668 8.45372 0.784708 8.51335 0.780574 8.57471C0.77694 8.63582 0.788194 8.69689 0.813369 8.75268C0.838544 8.80847 0.876888 8.85732 0.925105 8.89503L5.07745 12.2935V12.5161C4.55398 13.6281 4.28707 14.8435 4.29644 16.0725C4.30582 17.3015 4.59123 18.5127 5.13161 19.6166C5.67198 20.7205 6.4535 21.6889 7.4184 22.4501C8.38331 23.2114 9.50694 23.7461 10.7063 24.0147C11.9056 24.2834 13.15 24.2791 14.3474 24.0022C15.5449 23.7253 16.6648 23.1829 17.6244 22.415C18.5841 21.6471 19.3589 20.6734 19.8917 19.5659C20.4245 18.4583 20.7015 17.2452 20.7025 16.0161C20.7056 14.8059 20.4387 13.6102 19.9212 12.5161V12.2935L22.265 10.3755V13.5786L21.3079 15.4927C21.2186 15.6715 21.1766 15.8702 21.1858 16.0699C21.1949 16.2696 21.255 16.4636 21.3603 16.6335C21.4656 16.8034 21.6127 16.9435 21.7874 17.0406C21.9622 17.1376 22.1588 17.1884 22.3587 17.188H22.9525C23.1523 17.1884 23.349 17.1376 23.5238 17.0406C23.6985 16.9435 23.8455 16.8034 23.9508 16.6335C24.0561 16.4636 24.1162 16.2696 24.1254 16.0699C24.1346 15.8702 24.0925 15.6715 24.0032 15.4927L23.0462 13.5786ZM9.38214 15.6255C9.39531 14.0634 9.67538 12.5151 10.2103 11.0474C10.9709 10.9721 11.7349 10.9356 12.4993 10.938C13.2637 10.9356 14.0277 10.9721 14.7884 11.0474C15.3233 12.5151 15.6034 14.0634 15.6165 15.6255H9.38214ZM15.6165 16.4067C15.5999 17.611 15.4359 18.8087 15.1282 19.9732C13.425 19.3846 11.5736 19.3846 9.87042 19.9732C9.56271 18.8087 9.39873 17.611 9.38214 16.4067H15.6165ZM12.4993 10.1567C9.82745 10.1567 7.14386 10.5825 5.8587 11.3989V8.98487C5.8587 8.45362 8.20245 7.42237 12.4993 7.42237C16.7962 7.42237 19.14 8.45362 19.14 8.98487V11.3989C17.8548 10.5825 15.1712 10.1567 12.4993 10.1567ZM9.33527 11.1528C8.86523 12.5979 8.61761 14.106 8.60089 15.6255H5.08917C5.13745 14.6366 5.38596 13.6678 5.81964 12.7778C5.84591 12.7244 5.85928 12.6655 5.8587 12.606V12.5005C5.8587 12.1216 7.06964 11.4849 9.33527 11.1528ZM5.09698 16.4067H8.60089C8.61939 17.7083 8.80182 19.0024 9.14386 20.2583C8.50458 20.5468 7.90469 20.9157 7.3587 21.356C6.00195 20.0545 5.19301 18.2843 5.09698 16.4067ZM7.96026 21.8755C8.39981 21.5324 8.87681 21.2401 9.38214 21.0044C9.6462 21.7918 10.0483 22.5259 10.5696 23.1724C9.62222 22.918 8.7351 22.4771 7.96026 21.8755ZM12.4993 23.438C11.6243 23.438 10.7142 22.4302 10.1048 20.7192C11.6552 20.1776 13.3435 20.1776 14.8939 20.7192C14.2845 22.4302 13.3743 23.438 12.4993 23.438ZM14.429 23.1724C14.9504 22.5259 15.3525 21.7918 15.6165 21.0044C16.1219 21.2401 16.5989 21.5324 17.0384 21.8755C16.2636 22.4771 15.3764 22.918 14.429 23.1724ZM17.64 21.356C17.094 20.9157 16.4941 20.5468 15.8548 20.2583C16.1968 19.0024 16.3793 17.7083 16.3978 16.4067H19.9017C19.8057 18.2843 18.9967 20.0545 17.64 21.356ZM16.3978 15.6255C16.3811 14.106 16.1334 12.5979 15.6634 11.1528C17.929 11.4849 19.14 12.1216 19.14 12.5005V12.606C19.1394 12.6655 19.1528 12.7244 19.179 12.7778C19.6127 13.6678 19.8612 14.6366 19.9095 15.6255H16.3978ZM19.9212 11.2857V8.98487C19.9212 7.44581 16.1868 6.64112 12.4993 6.64112C8.81183 6.64112 5.07745 7.44581 5.07745 8.98487V11.2857L1.83136 8.6294L12.4993 1.64112L23.1673 8.6294L19.9212 11.2857ZM23.2845 16.2232C23.2503 16.2803 23.2015 16.3275 23.1432 16.3597C23.0849 16.392 23.0191 16.4082 22.9525 16.4067H22.3587C22.2921 16.4082 22.2263 16.392 22.1679 16.3597C22.1096 16.3275 22.0609 16.2803 22.0267 16.2232C21.9911 16.1663 21.9706 16.1013 21.9672 16.0343C21.9638 15.9673 21.9775 15.9005 22.0071 15.8403L22.6556 14.5474L23.304 15.8403C23.3336 15.9005 23.3474 15.9673 23.344 16.0343C23.3406 16.1013 23.3201 16.1663 23.2845 16.2232Z" fill="#D72DF3"/>
</svg>
