<svg width="25" height="25" viewBox="0 0 25 25" fill="none" xmlns="http://www.w3.org/2000/svg">
<path d="M23.0462 13.5787V9.73884L24.0736 8.89509C24.1218 8.85738 24.1601 8.80853 24.1853 8.75274C24.2105 8.69695 24.2217 8.63588 24.2181 8.57477C24.214 8.51341 24.196 8.45378 24.1656 8.40034C24.1351 8.3469 24.093 8.30103 24.0423 8.26618L12.7142 0.844304C12.6497 0.804094 12.5753 0.782776 12.4993 0.782776C12.4234 0.782776 12.3489 0.804094 12.2845 0.844304L0.956356 8.26618C0.905683 8.30103 0.863549 8.3469 0.833108 8.40034C0.802668 8.45378 0.784708 8.51341 0.780574 8.57477C0.77694 8.63588 0.788194 8.69695 0.813369 8.75274C0.838544 8.80853 0.876888 8.85738 0.925105 8.89509L5.07745 12.2935V12.5162C4.55398 13.6282 4.28707 14.8436 4.29644 16.0726C4.30582 17.3016 4.59123 18.5128 5.13161 19.6167C5.67198 20.7206 6.4535 21.6889 7.4184 22.4502C8.38331 23.2114 9.50694 23.7461 10.7063 24.0148C11.9056 24.2834 13.15 24.2792 14.3474 24.0023C15.5449 23.7254 16.6648 23.183 17.6244 22.4151C18.5841 21.6472 19.3589 20.6735 19.8917 19.5659C20.4245 18.4584 20.7015 17.2452 20.7025 16.0162C20.7056 14.8059 20.4387 13.6102 19.9212 12.5162V12.2935L22.265 10.3756V13.5787L21.3079 15.4927C21.2186 15.6716 21.1766 15.8703 21.1858 16.07C21.1949 16.2696 21.255 16.4637 21.3603 16.6336C21.4656 16.8035 21.6127 16.9436 21.7874 17.0407C21.9622 17.1377 22.1588 17.1884 22.3587 17.1881H22.9525C23.1523 17.1884 23.349 17.1377 23.5238 17.0407C23.6985 16.9436 23.8455 16.8035 23.9508 16.6336C24.0561 16.4637 24.1162 16.2696 24.1254 16.07C24.1346 15.8703 24.0925 15.6716 24.0032 15.4927L23.0462 13.5787ZM9.38214 15.6256C9.39531 14.0635 9.67538 12.5151 10.2103 11.0474C10.9709 10.9722 11.7349 10.9357 12.4993 10.9381C13.2637 10.9357 14.0277 10.9722 14.7884 11.0474C15.3233 12.5151 15.6034 14.0635 15.6165 15.6256H9.38214ZM15.6165 16.4068C15.5999 17.6111 15.4359 18.8088 15.1282 19.9732C13.425 19.3847 11.5736 19.3847 9.87042 19.9732C9.56271 18.8088 9.39873 17.6111 9.38214 16.4068H15.6165ZM12.4993 10.1568C9.82745 10.1568 7.14386 10.5826 5.8587 11.399V8.98493C5.8587 8.45368 8.20245 7.42243 12.4993 7.42243C16.7962 7.42243 19.14 8.45368 19.14 8.98493V11.399C17.8548 10.5826 15.1712 10.1568 12.4993 10.1568ZM9.33527 11.1529C8.86523 12.598 8.61761 14.1061 8.60089 15.6256H5.08917C5.13745 14.6367 5.38596 13.6679 5.81964 12.7779C5.84591 12.7244 5.85928 12.6656 5.8587 12.606V12.5006C5.8587 12.1216 7.06964 11.4849 9.33527 11.1529ZM5.09698 16.4068H8.60089C8.61939 17.7084 8.80182 19.0024 9.14386 20.2584C8.50458 20.5469 7.90469 20.9158 7.3587 21.356C6.00195 20.0546 5.19301 18.2844 5.09698 16.4068ZM7.96026 21.8756C8.39981 21.5324 8.87681 21.2402 9.38214 21.0045C9.6462 21.7919 10.0483 22.526 10.5696 23.1724C9.62222 22.9181 8.7351 22.4772 7.96026 21.8756ZM12.4993 23.4381C11.6243 23.4381 10.7142 22.4302 10.1048 20.7193C11.6552 20.1776 13.3435 20.1776 14.8939 20.7193C14.2845 22.4302 13.3743 23.4381 12.4993 23.4381ZM14.429 23.1724C14.9504 22.526 15.3525 21.7919 15.6165 21.0045C16.1219 21.2402 16.5989 21.5324 17.0384 21.8756C16.2636 22.4772 15.3764 22.9181 14.429 23.1724ZM17.64 21.356C17.094 20.9158 16.4941 20.5469 15.8548 20.2584C16.1968 19.0024 16.3793 17.7084 16.3978 16.4068H19.9017C19.8057 18.2844 18.9967 20.0546 17.64 21.356ZM16.3978 15.6256C16.3811 14.1061 16.1334 12.598 15.6634 11.1529C17.929 11.4849 19.14 12.1216 19.14 12.5006V12.606C19.1394 12.6656 19.1528 12.7244 19.179 12.7779C19.6127 13.6679 19.8612 14.6367 19.9095 15.6256H16.3978ZM19.9212 11.2857V8.98493C19.9212 7.44587 16.1868 6.64118 12.4993 6.64118C8.81183 6.64118 5.07745 7.44587 5.07745 8.98493V11.2857L1.83136 8.62946L12.4993 1.64118L23.1673 8.62946L19.9212 11.2857ZM23.2845 16.2232C23.2503 16.2804 23.2015 16.3275 23.1432 16.3598C23.0849 16.392 23.0191 16.4082 22.9525 16.4068H22.3587C22.2921 16.4082 22.2263 16.392 22.1679 16.3598C22.1096 16.3275 22.0609 16.2804 22.0267 16.2232C21.9911 16.1664 21.9706 16.1013 21.9672 16.0343C21.9638 15.9673 21.9775 15.9006 22.0071 15.8404L22.6556 14.5474L23.304 15.8404C23.3336 15.9006 23.3474 15.9673 23.344 16.0343C23.3406 16.1013 23.3201 16.1664 23.2845 16.2232Z" fill="#3577F6"/>
</svg>
